<svg width="128" height="32" viewBox="0 0 128 32" fill="none" xmlns="http://www.w3.org/2000/svg">
    <path d="M18.9 15.152a6.321 6.321 0 0 1 3.01-5.303 6.47 6.47 0 0 0-5.098-2.756c-2.145-.225-4.224 1.283-5.317 1.283-1.114 0-2.797-1.26-4.609-1.223a6.789 6.789 0 0 0-5.713 3.484c-2.47 4.276-.628 10.562 1.739 14.019 1.183 1.693 2.567 3.583 4.377 3.516 1.772-.073 2.434-1.13 4.572-1.13 2.119 0 2.74 1.13 4.587 1.088 1.9-.031 3.098-1.7 4.24-3.41a14.001 14.001 0 0 0 1.94-3.95 6.107 6.107 0 0 1-3.728-5.618ZM15.41 4.82A6.224 6.224 0 0 0 16.835.36a6.332 6.332 0 0 0-4.097 2.12 5.921 5.921 0 0 0-1.46 4.293A5.235 5.235 0 0 0 15.41 4.82ZM41.294 23.888h-6.046l-1.452 4.287h-2.56l5.726-15.86h2.66l5.727 15.86h-2.605l-1.45-4.287Zm-5.42-1.978h4.792l-2.362-6.957h-.066l-2.364 6.957ZM57.715 22.394c0 3.593-1.923 5.902-4.825 5.902a3.92 3.92 0 0 1-3.639-2.023h-.055V32h-2.373V16.61h2.297v1.924h.044a4.102 4.102 0 0 1 3.682-2.045c2.935 0 4.87 2.32 4.87 5.904Zm-2.44 0c0-2.341-1.21-3.88-3.055-3.88-1.814 0-3.034 1.571-3.034 3.88 0 2.33 1.22 3.89 3.034 3.89 1.846 0 3.056-1.528 3.056-3.89ZM70.443 22.394c0 3.593-1.923 5.902-4.826 5.902a3.92 3.92 0 0 1-3.638-2.023h-.055V32H59.55V16.61h2.298v1.924h.044a4.101 4.101 0 0 1 3.681-2.045c2.935 0 4.87 2.32 4.87 5.904Zm-2.44 0c0-2.341-1.21-3.88-3.056-3.88-1.813 0-3.033 1.571-3.033 3.88 0 2.33 1.22 3.89 3.033 3.89 1.846 0 3.056-1.528 3.056-3.89ZM78.855 23.756c.175 1.573 1.703 2.605 3.791 2.605 2.001 0 3.44-1.033 3.44-2.45 0-1.232-.868-1.969-2.923-2.474l-2.056-.495c-2.912-.704-4.264-2.066-4.264-4.276 0-2.736 2.385-4.616 5.77-4.616 3.352 0 5.65 1.88 5.727 4.616h-2.396c-.143-1.583-1.452-2.538-3.364-2.538s-3.22.966-3.22 2.373c0 1.122.835 1.782 2.88 2.287l1.747.429c3.254.77 4.606 2.077 4.606 4.396 0 2.968-2.363 4.826-6.123 4.826-3.517 0-5.892-1.815-6.045-4.683h2.43ZM93.716 13.875v2.737h2.2v1.88h-2.2v6.374c0 .99.44 1.452 1.407 1.452.261-.004.522-.023.78-.055v1.869a6.52 6.52 0 0 1-1.318.11c-2.34 0-3.254-.88-3.254-3.122V18.49H89.65v-1.88h1.681v-2.736h2.385ZM97.189 22.394c0-3.638 2.143-5.924 5.484-5.924 3.353 0 5.486 2.286 5.486 5.924 0 3.649-2.122 5.925-5.486 5.925-3.362 0-5.484-2.276-5.484-5.925Zm8.551 0c0-2.496-1.143-3.969-3.067-3.969-1.923 0-3.066 1.485-3.066 3.97 0 2.505 1.143 3.967 3.066 3.967 1.924 0 3.067-1.462 3.067-3.968ZM110.115 16.611h2.264v1.968h.055a2.755 2.755 0 0 1 2.781-2.089c.274 0 .547.029.814.089v2.22a3.325 3.325 0 0 0-1.067-.143 2.388 2.388 0 0 0-1.848.76 2.395 2.395 0 0 0-.625 1.9v6.859h-2.374V16.611ZM126.973 24.779c-.32 2.1-2.364 3.54-4.98 3.54-3.364 0-5.451-2.254-5.451-5.87 0-3.627 2.099-5.98 5.352-5.98 3.199 0 5.211 2.198 5.211 5.704v.814h-8.167v.143a3.002 3.002 0 0 0 .816 2.34 3.012 3.012 0 0 0 2.294.935 2.615 2.615 0 0 0 2.671-1.626h2.254Zm-8.024-3.451h5.781a2.798 2.798 0 0 0-.17-1.125 2.792 2.792 0 0 0-1.548-1.601 2.78 2.78 0 0 0-1.118-.21 2.931 2.931 0 0 0-2.723 1.81c-.148.356-.223.74-.222 1.126ZM35.577.376a3.371 3.371 0 0 1 3.586 3.787c0 2.434-1.316 3.834-3.586 3.834h-2.753V.376h2.753Zm-1.57 6.543h1.438a2.396 2.396 0 0 0 2.513-2.74 2.403 2.403 0 0 0-2.513-2.726h-1.437v5.466ZM40.5 5.119a2.725 2.725 0 1 1 5.425 0 2.725 2.725 0 1 1-5.425 0Zm4.257 0c0-1.247-.56-1.976-1.543-1.976-.986 0-1.541.73-1.541 1.976 0 1.257.555 1.98 1.541 1.98.983 0 1.543-.728 1.543-1.98ZM53.135 7.996h-1.177l-1.189-4.235h-.09l-1.183 4.235H48.33l-1.586-5.75h1.151l1.03 4.388h.086l1.182-4.389h1.089l1.182 4.389h.09l1.025-4.389h1.135l-1.579 5.751ZM56.048 2.245h1.093v.913h.084a1.722 1.722 0 0 1 1.717-1.024 1.87 1.87 0 0 1 1.99 2.139v3.723h-1.135V4.558c0-.925-.401-1.384-1.24-1.384a1.32 1.32 0 0 0-1.374 1.457v3.365h-1.135V2.245ZM62.74 0h1.136v7.996H62.74V0ZM65.453 5.119a2.727 2.727 0 0 1 2.713-2.984 2.725 2.725 0 0 1 2.712 2.984 2.725 2.725 0 1 1-5.425 0Zm4.257 0c0-1.247-.56-1.976-1.543-1.976-.986 0-1.541.73-1.541 1.976 0 1.257.555 1.98 1.541 1.98.983 0 1.543-.728 1.543-1.98ZM72.073 6.37c0-1.035.771-1.632 2.14-1.716l1.557-.09v-.497c0-.607-.401-.95-1.177-.95-.634 0-1.073.233-1.199.64h-1.099c.116-.989 1.046-1.622 2.35-1.622 1.442 0 2.255.718 2.255 1.932v3.93h-1.092v-.808h-.09a1.934 1.934 0 0 1-1.728.903 1.737 1.737 0 0 1-1.917-1.721Zm3.697-.49v-.482l-1.404.09c-.792.053-1.151.323-1.151.83 0 .517.448.818 1.066.818a1.356 1.356 0 0 0 1.49-1.257ZM78.392 5.118c0-1.817.934-2.968 2.387-2.968a1.895 1.895 0 0 1 1.764 1.009h.085V0h1.135v7.996h-1.088v-.908h-.09A1.995 1.995 0 0 1 80.78 8.09c-1.463 0-2.387-1.151-2.387-2.973Zm1.173 0c0 1.22.575 1.954 1.536 1.954.957 0 1.548-.744 1.548-1.949 0-1.198-.597-1.954-1.548-1.954-.955 0-1.536.74-1.536 1.95ZM88.46 5.119a2.725 2.725 0 1 1 5.424 0 2.725 2.725 0 1 1-5.425 0Zm4.256 0c0-1.247-.56-1.976-1.543-1.976-.986 0-1.541.73-1.541 1.976 0 1.257.555 1.98 1.541 1.98.983 0 1.543-.728 1.543-1.98ZM95.407 2.245h1.092v.913h.085A1.722 1.722 0 0 1 98.3 2.134a1.87 1.87 0 0 1 1.991 2.139v3.723h-1.135V4.558c0-.925-.402-1.384-1.24-1.384a1.32 1.32 0 0 0-1.374 1.457v3.365h-1.135V2.245ZM106.705.813v1.458h1.246v.956h-1.246v2.958c0 .602.248.866.813.866.144 0 .289-.01.433-.026v.945a3.734 3.734 0 0 1-.618.058c-1.262 0-1.765-.444-1.765-1.553V3.227h-.913v-.956h.913V.813h1.137ZM109.501 0h1.125v3.17h.09a1.77 1.77 0 0 1 1.753-1.03 1.899 1.899 0 0 1 1.495.605 1.897 1.897 0 0 1 .486 1.538v3.713h-1.136V4.563c0-.918-.428-1.384-1.23-1.384a1.345 1.345 0 0 0-1.448 1.458v3.36h-1.135V0ZM121.068 6.444a2.332 2.332 0 0 1-2.492 1.664 2.61 2.61 0 0 1-2.656-2.968c-.051-.377-.02-.76.091-1.124a2.648 2.648 0 0 1 2.56-1.881c1.601 0 2.566 1.093 2.566 2.9v.395h-4.061v.064a1.519 1.519 0 0 0 1.531 1.647 1.381 1.381 0 0 0 1.369-.697h1.092Zm-3.992-1.853h2.905a1.394 1.394 0 0 0-.378-1.059 1.4 1.4 0 0 0-1.038-.431 1.473 1.473 0 0 0-1.489 1.49Z" fill="#fff"/>
</svg>
