<svg width="137" height="33" viewBox="0 0 137 33" fill="none" xmlns="http://www.w3.org/2000/svg">
    <path d="M44.041 4.043a3.185 3.185 0 0 1-.876 2.355 3.421 3.421 0 0 1-2.592 1.044 3.633 3.633 0 0 1-3.666-3.685A3.633 3.633 0 0 1 40.573.07c.498-.002.99.099 1.448.295.425.173.803.443 1.104.789l-.62.62a2.382 2.382 0 0 0-1.932-.837 2.728 2.728 0 0 0-2.74 2.819 2.774 2.774 0 0 0 4.71 2.03 2.22 2.22 0 0 0 .592-1.43h-2.562V3.51h3.419c.032.176.049.354.05.533ZM49.462 1.096H46.25v2.237h2.898v.848h-2.898v2.237h3.213v.867h-4.12V.229h4.12v.867ZM53.286 7.285h-.907v-6.19h-1.971V.23h4.849v.867h-1.971v6.189ZM58.765 7.285V.229h.906v7.056h-.906ZM63.693 7.285h-.907v-6.19h-1.971V.23h4.849v.867h-1.971v6.189ZM74.843 6.373a3.664 3.664 0 0 1-5.174 0 3.606 3.606 0 0 1-1.04-2.616 3.608 3.608 0 0 1 1.04-2.617 3.652 3.652 0 0 1 5.169.005 3.61 3.61 0 0 1 1.044 2.612 3.615 3.615 0 0 1-1.04 2.616Zm-4.505-.591a2.713 2.713 0 0 0 3.834 0 2.76 2.76 0 0 0 .784-2.025 2.762 2.762 0 0 0-.784-2.026 2.713 2.713 0 0 0-3.834 0 2.764 2.764 0 0 0-.783 2.026 2.765 2.765 0 0 0 .783 2.025ZM77.154 7.285V.229h1.104l3.43 5.489h.038l-.039-1.36V.228h.908v7.057h-.947L78.06 1.53h-.039l.04 1.36v4.395h-.907Z" fill="#fff" stroke="#fff" stroke-width=".141" stroke-miterlimit="10"/>
    <path d="M68.406 17.576a5.001 5.001 0 1 0 5.02 5.002 4.93 4.93 0 0 0-5.02-5.002Zm0 8.034a3.04 3.04 0 1 1 2.823-3.032 2.893 2.893 0 0 1-2.823 3.032Zm-10.953-8.034a5.001 5.001 0 1 0 5.021 5.002 4.93 4.93 0 0 0-5.02-5.002Zm0 8.034a3.04 3.04 0 1 1 2.823-3.032 2.893 2.893 0 0 1-2.823 3.032ZM44.424 19.11v2.122h5.078a4.429 4.429 0 0 1-1.156 2.672 5.199 5.199 0 0 1-3.922 1.553 5.647 5.647 0 0 1 0-11.292 5.412 5.412 0 0 1 3.828 1.516l1.496-1.497a7.403 7.403 0 0 0-5.324-2.14 7.77 7.77 0 1 0 0 15.535 7.103 7.103 0 0 0 5.419-2.179 7.011 7.011 0 0 0 1.838-4.964 6.906 6.906 0 0 0-.114-1.326h-7.143Zm53.284 1.648a4.649 4.649 0 0 0-4.282-3.183 4.752 4.752 0 0 0-4.717 5.002 4.893 4.893 0 0 0 4.963 5.002 4.975 4.975 0 0 0 4.169-2.217l-1.706-1.136a2.857 2.857 0 0 1-2.463 1.383 2.544 2.544 0 0 1-2.425-1.516l6.689-2.766-.228-.569Zm-6.82 1.668a2.745 2.745 0 0 1 2.614-2.918 1.937 1.937 0 0 1 1.857 1.061l-4.472 1.857Zm-5.438 4.85h2.197V12.575H85.45v14.702Zm-3.6-8.583h-.076a3.466 3.466 0 0 0-2.633-1.117 5.006 5.006 0 0 0 0 10.003 3.41 3.41 0 0 0 2.633-1.137h.076v.72c0 1.914-1.023 2.937-2.671 2.937a2.767 2.767 0 0 1-2.52-1.781l-1.914.796a4.767 4.767 0 0 0 4.433 2.955c2.577 0 4.756-1.515 4.756-5.21v-8.98H81.85v.814Zm-2.52 6.916a3.042 3.042 0 0 1 0-6.063 2.818 2.818 0 0 1 2.671 3.05 2.795 2.795 0 0 1-2.67 3.013Zm28.673-13.035h-5.258v14.702h2.194v-5.57h3.064a4.572 4.572 0 1 0 0-9.132Zm.056 7.086h-3.12v-5.04h3.12a2.523 2.523 0 0 1 2.573 2.52 2.52 2.52 0 0 1-2.573 2.52Zm13.562-2.112a4.123 4.123 0 0 0-3.915 2.251l1.948.814a2.08 2.08 0 0 1 2.005-1.079 2.111 2.111 0 0 1 2.307 1.892v.151a4.85 4.85 0 0 0-2.288-.567c-2.1 0-4.237 1.154-4.237 3.31a3.388 3.388 0 0 0 1.141 2.39 3.394 3.394 0 0 0 2.509.844 3.094 3.094 0 0 0 2.8-1.437h.075v1.135h2.119v-5.637c0-2.61-1.948-4.067-4.464-4.067Zm-.265 8.058c-.719 0-1.721-.36-1.721-1.248 0-1.135 1.248-1.57 2.326-1.57a3.908 3.908 0 0 1 2.005.491 2.656 2.656 0 0 1-2.61 2.327Zm12.446-7.736-2.516 6.374h-.076l-2.61-6.374h-2.364l3.915 8.909-2.232 4.955h2.289l6.034-13.864h-2.44Zm-19.766 9.406h2.194V12.575h-2.194v14.702Z" fill="#fff"/>
    <path d="M.549.861a2.355 2.355 0 0 0-.545 1.652v26.01c-.036.6.159 1.19.545 1.651l.087.085 14.57-14.57v-.343L.635.776.549.86Z" fill="url(#paint0_linear_4031_1013)"/>
    <path d="m20.062 20.548-4.856-4.858v-.344l4.857-4.857.11.062 5.754 3.27c1.643.933 1.643 2.461 0 3.395l-5.755 3.27-.11.062Z" fill="url(#paint1_linear_4031_1013)"/>
    <path d="m20.172 20.485-4.966-4.967L.549 30.174a1.912 1.912 0 0 0 2.444.073l17.18-9.762Z" fill="url(#paint2_linear_4031_1013)"/>
    <path d="M20.172 10.55 2.992.79A1.913 1.913 0 0 0 .55.86l14.657 14.657 4.966-4.967Z" fill="url(#paint3_linear_4031_1013)"/>
    <defs>
        <linearGradient id="paint0_linear_4031_1013" x1="13.913" y1="2.239" x2="-5.823" y2="21.976" gradientUnits="userSpaceOnUse">
            <stop stop-color="#00A0FF"/>
            <stop offset=".007" stop-color="#00A1FF"/>
            <stop offset=".26" stop-color="#00BEFF"/>
            <stop offset=".512" stop-color="#00D2FF"/>
            <stop offset=".76" stop-color="#00DFFF"/>
            <stop offset="1" stop-color="#00E3FF"/>
        </linearGradient>
        <linearGradient id="paint1_linear_4031_1013" x1="28.067" y1="15.518" x2="-.39" y2="15.518" gradientUnits="userSpaceOnUse">
            <stop stop-color="#FFE000"/>
            <stop offset=".409" stop-color="#FFBD00"/>
            <stop offset=".775" stop-color="orange"/>
            <stop offset="1" stop-color="#FF9C00"/>
        </linearGradient>
        <linearGradient id="paint2_linear_4031_1013" x1="17.474" y1="18.217" x2="-9.291" y2="44.981" gradientUnits="userSpaceOnUse">
            <stop stop-color="#FF3A44"/>
            <stop offset="1" stop-color="#C31162"/>
        </linearGradient>
        <linearGradient id="paint3_linear_4031_1013" x1="-3.142" y1="-7.796" x2="8.81" y2="4.155" gradientUnits="userSpaceOnUse">
            <stop stop-color="#32A071"/>
            <stop offset=".069" stop-color="#2DA771"/>
            <stop offset=".476" stop-color="#15CF74"/>
            <stop offset=".801" stop-color="#06E775"/>
            <stop offset="1" stop-color="#00F076"/>
        </linearGradient>
    </defs>
</svg>
